<?xml version="1.0" encoding="UTF-8" standalone="no"?>
<!-- Created with Inkscape (http://www.inkscape.org/) -->
<svg
    xmlns:inkscape="http://www.inkscape.org/namespaces/inkscape"
    xmlns:rdf="http://www.w3.org/1999/02/22-rdf-syntax-ns#"
    xmlns="http://www.w3.org/2000/svg"
    xmlns:cc="http://creativecommons.org/ns#"
    xmlns:dc="http://purl.org/dc/elements/1.1/"
    xmlns:sodipodi="http://sodipodi.sourceforge.net/DTD/sodipodi-0.dtd"
    xmlns:svg="http://www.w3.org/2000/svg"
    xmlns:ns1="http://sozi.baierouge.fr"
    xmlns:xlink="http://www.w3.org/1999/xlink"
    id="svg13251"
    inkscape:version="0.46"
    viewBox="0 0 94 76"
    sodipodi:version="0.32"
    version="1.0"
    inkscape:output_extension="org.inkscape.output.svg.inkscape"
    sodipodi:docname="arki_arrow_up.svg"
    sodipodi:docbase="/datas/Projs/Cliparts Stocker"
  >
  <sodipodi:namedview
      id="base"
      bordercolor="#666666"
      inkscape:window-x="0"
      inkscape:window-y="20"
      pagecolor="#ffffff"
      inkscape:zoom="10.618421"
      inkscape:pageshadow="2"
      borderopacity="1.0"
      inkscape:current-layer="layer1"
      inkscape:cx="47"
      inkscape:cy="38"
      inkscape:document-units="px"
      inkscape:window-width="1680"
      showgrid="false"
      inkscape:pageopacity="0.0"
      inkscape:window-height="1003"
      showguides="false"
  />
  <g
      id="layer1"
      inkscape:label="Layer 1"
      inkscape:groupmode="layer"
    >
    <g
        id="g3160"
        transform="translate(-9.2506 -18.249)"
      >
      <g
          id="g3152"
          style="fill:#d17fa7"
          transform="matrix(.035433 0 0 .035433 -212.97 -344.55)"
        >
        <path
            id="path3154"
            sodipodi:nodetypes="ccccc"
            d="m7601 11063l-1251 1249 1252-1999 1248 2001-1249-1251z"
        />
      </g>
      <g
          id="g2604"
          style="stroke:#683f54;fill:#d17fa7"
          transform="matrix(.035433 0 0 .035433 -213.04 -344.62)"
        >
        <path
            id="path2606"
            style="fill:#683f54"
            d="m7602.4 10285c-9.9 0-19.1 5-24.3 13l-1252 1999c-7.6 12-4.8 28 6.4 37s27.3 8 37.4-2l1231.1-1229 1229 1231c10.2 10 26.3 11 37.5 2s14-25 6.4-37l-1248-2001c-5-8-13.9-13-23.5-13zm-0.5 81l1093.1 1753-1074-1076c-11-11-28.9-11-39.9 0l-1075.6 1074 1096.4-1751z"
        />
      </g>
    </g>
  </g>
</svg>
